<svg width="40" height="40" viewBox="0 0 40 40" fill="none" xmlns="http://www.w3.org/2000/svg">
<g clip-path="url(#clip0_271_23)">
<path d="M0 2.86531C0 1.28375 1.32406 0 2.95625 0H37.0438C38.6766 0 40 1.28375 40 2.86531V37.1352C40 38.7172 38.6766 40 37.0438 40H2.95625C1.32422 40 0 38.7173 0 37.1356V2.86484V2.86531Z" fill="#006699"/>
<path d="M12.1556 33.4747V15.4666H6.17001V33.4747H12.1563H12.1556ZM9.16408 13.0083C11.251 13.0083 12.5502 11.6255 12.5502 9.89736C12.5111 8.12986 11.2509 6.78564 9.20376 6.78564C7.15517 6.78564 5.8172 8.12986 5.8172 9.89721C5.8172 11.6253 7.11595 13.0081 9.12486 13.0081H9.16361L9.16408 13.0083ZM15.4688 33.4747H21.4539V23.4192C21.4539 22.8817 21.493 22.3428 21.6511 21.9589C22.0836 20.8831 23.0685 19.7696 24.7224 19.7696C26.8877 19.7696 27.7544 21.4208 27.7544 23.8419V33.4747H33.7394V23.1494C33.7394 17.6183 30.7869 15.0444 26.8489 15.0444C23.6203 15.0444 22.2024 16.8489 21.4145 18.078H21.4544V15.4672H15.4691C15.5472 17.1566 15.4686 33.4753 15.4686 33.4753L15.4688 33.4747Z" fill="white"/>
</g>
<defs>
<clipPath id="clip0_271_23">
<rect width="40" height="40" fill="white"/>
</clipPath>
</defs>
</svg>
