<svg width="40" height="40" viewBox="0 0 40 40" fill="none" xmlns="http://www.w3.org/2000/svg">
<g clip-path="url(#clip0_271_27)">
<rect width="40" height="40" fill="white"/>
<path d="M19.1486 16.4615L11.3875 5.6145H7.24811L16.8621 19.0501L18.0723 20.7403L26.3013 32.2504H30.4407L20.3536 18.1516L19.1486 16.4615Z" fill="black"/>
<path d="M37.4869 -0.975586H2.51313C0.57281 -0.975586 -1 0.595398 -1 2.53346V37.4666C-1 39.4046 0.57281 40.9756 2.51313 40.9756H37.4869C39.4272 40.9756 41 39.4046 41 37.4666V2.53346C41 0.595398 39.4272 -0.975586 37.4869 -0.975586ZM26.1766 35.255L17.8481 23.4076L7.42184 35.255H4.72727L16.6531 21.7073L4.72727 4.74503H13.8234L21.7082 15.9612L31.5874 4.74503H34.2818L22.9094 17.6653L35.2727 35.255H26.1766Z" fill="black"/>
</g>
<defs>
<clipPath id="clip0_271_27">
<rect width="40" height="40" fill="white"/>
</clipPath>
</defs>
</svg>
